<svg width="29" height="30" viewBox="0 0 29 30" fill="none" xmlns="http://www.w3.org/2000/svg">
<path d="M0.841257 11.155C2.96679 14.2132 2.94987 15.5928 2.93636 16.9316C2.83477 26.6636 9.55327 29.6709 13.5437 29.9122C13.8484 29.9292 14.1428 29.9393 14.4372 29.9393C16.2826 29.9614 18.1115 29.5902 19.8035 28.8504C21.4954 28.1107 23.0118 27.019 24.2526 25.6476L26.4696 23.1942L26.5068 23.15L27.6068 21.9301C27.9963 21.5388 28.2735 21.0493 28.4093 20.5131C28.5452 19.977 28.5346 19.4141 28.3787 18.8834C28.2229 18.3528 27.9275 17.8742 27.5236 17.4978C27.1198 17.1215 26.6224 16.8613 26.0837 16.7447C26.1895 16.359 26.2106 15.9549 26.1457 15.5602C26.0808 15.1655 25.9313 14.7896 25.7077 14.4585C25.4841 14.1274 25.1916 13.849 24.8504 13.6423C24.5092 13.4358 24.1274 13.3058 23.7314 13.2617C23.8414 12.9565 23.8986 12.6348 23.9006 12.3103C23.9025 11.6016 23.6592 10.9142 23.2122 10.3657C22.7653 9.81726 22.1424 9.44154 21.4502 9.30297L25.1225 5.60249C25.4106 5.31416 25.6386 4.97115 25.7933 4.59337C25.9479 4.21559 26.026 3.81075 26.0231 3.40234C26.0201 2.99392 25.9362 2.59019 25.7762 2.21472C25.6162 1.83924 25.3832 1.49953 25.0911 1.2154C24.7988 0.931273 24.4532 0.708432 24.0742 0.559884C23.6953 0.411329 23.2907 0.340042 22.884 0.350193C22.4773 0.360336 22.0767 0.451702 21.7056 0.618964C21.3345 0.786218 21.0003 1.02602 20.7225 1.32436C16.6982 5.63646 11.6957 10.5433 9.72252 11.3486C8.57169 11.8243 8.29414 11.4539 7.40402 9.9894C6.78576 8.84194 5.96457 7.81718 4.98062 6.96511C3.80956 6.01027 2.43201 5.98313 1.29138 6.89035C0.00189005 7.91321 -0.184277 9.67337 0.841257 11.155ZM25.4305 18.0394C25.6551 18.0385 25.8775 18.0826 26.085 18.1689C26.2925 18.2552 26.4807 18.3822 26.6388 18.5423C26.7983 18.7046 26.9243 18.8969 27.0096 19.1084C27.0948 19.3197 27.1375 19.5459 27.1352 19.7739C27.133 20.0019 27.086 20.2273 26.9967 20.4369C26.9074 20.6466 26.7778 20.8365 26.6151 20.9957L25.5422 22.1816C25.2548 22.3179 24.9328 22.3626 24.6194 22.3097C24.306 22.2569 24.0162 22.109 23.789 21.886L23.728 21.8214C23.4512 21.5488 23.2849 21.1831 23.2612 20.7946C23.2374 20.4061 23.3579 20.0225 23.5994 19.7181L25.2918 18.019L25.4305 18.0394ZM24.4151 15.0015C24.6658 15.2511 24.8133 15.5864 24.8284 15.9404C24.8435 16.2945 24.7249 16.6411 24.4963 16.9112C24.468 16.9373 24.442 16.9657 24.4185 16.9961L22.4757 18.9466C22.2013 19.0474 21.9044 19.0689 21.6184 19.0089C21.3325 18.9488 21.069 18.8096 20.8579 18.6069L20.7767 18.5253C20.5103 18.2475 20.3537 17.8819 20.3362 17.4966C20.3188 17.1114 20.4416 16.733 20.6819 16.4321C20.9526 16.2214 22.0865 15.3209 22.689 14.8011C22.9571 14.6381 23.2715 14.5693 23.5828 14.6056C23.8942 14.6419 24.1846 14.7811 24.4084 15.0015H24.4151ZM22.0459 11.0904C22.2054 11.2491 22.3318 11.4381 22.4178 11.6464C22.5038 11.8546 22.5477 12.078 22.5468 12.3034C22.5026 12.8555 22.248 13.3692 21.836 13.7374C21.4231 14.0977 20.533 14.8146 19.8764 15.3311C19.5963 15.4114 19.3001 15.4146 19.0184 15.3404C18.7368 15.2663 18.4801 15.1176 18.2754 14.9098L18.2314 14.8656C17.9232 14.5559 17.7502 14.1361 17.7502 13.6984C17.7502 13.2607 17.9232 12.8408 18.2314 12.5311L19.8222 10.9341C20.1481 10.6858 20.5527 10.5644 20.9609 10.5926C21.3691 10.6207 21.7533 10.7963 22.0425 11.0869L22.0459 11.0904ZM2.13414 7.94035C2.78402 7.42384 3.43722 7.44424 4.12774 8.00496C4.98924 8.75908 5.70711 9.66408 6.24647 10.6758C6.56046 11.2657 6.95461 11.8089 7.41754 12.2899C7.43019 12.3087 7.44371 12.3268 7.45817 12.3442C7.51572 12.4054 8.812 13.8292 7.492 15.8986C7.40307 16.0503 7.37627 16.2307 7.41714 16.4019C7.45801 16.5731 7.56355 16.7216 7.71129 16.8163C7.85912 16.911 8.03778 16.9443 8.20963 16.9095C8.38141 16.8746 8.53311 16.7741 8.63264 16.6292C9.00616 16.0915 9.25588 15.4773 9.36355 14.8308C9.47129 14.1842 9.4343 13.5217 9.2554 12.8913C9.59066 12.8453 9.91841 12.755 10.2302 12.6229C12.8939 11.5254 19.1385 5.01805 21.704 2.269C21.8599 2.10027 22.0482 1.96511 22.2577 1.87162C22.4671 1.77816 22.6933 1.72839 22.9225 1.72534C23.152 1.72173 23.3798 1.76438 23.5926 1.85076C23.8054 1.93718 23.9988 2.06551 24.1612 2.22821C24.3204 2.38765 24.4466 2.57702 24.5328 2.78543C24.619 2.99392 24.6633 3.21734 24.6633 3.44305C24.6633 3.66876 24.619 3.89218 24.5328 4.10067C24.4466 4.30908 24.3204 4.49845 24.1612 4.65781L17.2702 11.5627C16.9902 11.8424 16.768 12.175 16.6164 12.5412C16.4648 12.9074 16.3868 13.3001 16.3868 13.6967C16.3868 14.0933 16.4648 14.4859 16.6164 14.8522C16.768 15.2184 16.9902 15.5509 17.2702 15.8307L17.3074 15.8681C17.7736 16.3373 18.3821 16.6374 19.037 16.7209C18.919 17.2113 18.9279 17.7239 19.063 18.2099C19.1981 18.6958 19.4548 19.1389 19.8087 19.4972L19.8357 19.5209L19.8628 19.5481C20.4119 20.0944 21.1544 20.3999 21.9274 20.3977C21.8812 20.8319 21.9326 21.2711 22.0779 21.6827C22.2231 22.0944 22.4586 22.4681 22.7668 22.7762L22.8176 22.834C23.2092 23.2262 23.7031 23.4995 24.2425 23.6223L23.2271 24.7471L23.2001 24.7777C21.9881 26.0876 20.4983 27.1069 18.8409 27.7605C17.1834 28.414 15.4008 28.6848 13.625 28.553C11.8809 28.4011 10.2017 27.8173 8.73754 26.8539C8.84252 26.8539 8.95082 26.8539 9.05912 26.8539H9.34679C11.0391 26.7452 12.5858 25.7156 13.9668 23.7957C14.0665 23.6491 14.105 23.4691 14.0742 23.2943C14.0435 23.1195 13.9458 22.9637 13.802 22.8603C13.6584 22.7569 13.4801 22.714 13.3053 22.7408C13.1305 22.7677 12.9731 22.8621 12.8668 23.0039C11.7398 24.5806 10.5314 25.4234 9.27232 25.5083C7.51572 25.6238 6.16529 24.2136 6.14497 24.1932C6.11501 24.1619 6.08213 24.1334 6.04679 24.1083C4.98742 22.4296 4.25968 20.1257 4.29359 16.9418C4.3139 15.1442 4.15137 13.52 1.95477 10.3665C1.44371 9.64622 1.30497 8.60638 2.13414 7.94035Z" fill="white"/>
</svg>
